<?xml version="1.0" encoding="UTF-8"?> <svg xmlns="http://www.w3.org/2000/svg" id="Слой_1" data-name="Слой 1" viewBox="0 0 216 72"> <defs> <style> .cls-1 { fill: #065292; } .cls-1, .cls-2 { fill-rule: evenodd; } .cls-2 { fill: #e22226; } .cls-3 { fill: #1d1d1b; } </style> </defs> <path class="cls-1" d="M18.36,36.78C14,27.08,32.91,16.5,40.48,13.2c1.75-.78,2.91-1.75,3-4-9,1.46-30.66,11.26-34.26,20.48-2.71,7,6.12,8.73,9.13,7.08"></path> <path class="cls-2" d="M25.93,37.75c.48-.77.87-2.42,1.45-3.39a30.21,30.21,0,0,1,6.89-8.25A53,53,0,0,1,40,21.84a45.53,45.53,0,0,1,6.4-3.5c-7,5.92-12.42,11.55-17.27,21-4.27,8.34-7.57,20.18-6.79,31.44,3.1-.78,8.05-4.37,9-6.41.58-1.26.49-7.76,1.94-13.39C37.57,35,46.21,23.88,61,16.6c1.55-.78,3.88-1.55,5-2.62,2.14-1.85,2.43-4,3.11-4.56,2-1.56,7.08-.1,9.12-6.21-5.43-.3-29.89,9.89-35.71,12.51S23.69,24.94,21.36,31a4.83,4.83,0,0,0,4.57,6.79M10.79,21.93l6.89-5.14c1.55-1.55,2.91-7.18-1.36-8.25-3.59-.87-6.41,1.75-7.38,4.37C7.29,17,9.14,19.41,10.79,21.93Z"></path> <g> <path class="cls-3" d="M60.8,32.46c0-2.12,1.49-3.12,3.85-3.12h.72c2.36,0,3.85,1,3.85,3.12s-1.49,3.17-3.85,3.17h-.72C62.29,35.63,60.8,34.58,60.8,32.46Zm4.71,1.81c1.22,0,2-.58,2-1.81s-.77-1.76-2-1.76h-1c-1.22,0-2,.53-2,1.76s.77,1.81,2,1.81Zm-1.29-6H65.8v8.43H64.22Z"></path> <path class="cls-3" d="M70.74,28.43h5.1V30H72.58v1.64h2.77v1.54H72.58V35H76v1.54H70.74Z"></path> <path class="cls-3" d="M78.58,38.91H76.94l-.16-2.74V35h8v1.15l-.16,2.74H83V36.56H78.58ZM82,30H80.41c-.18,1-.25,1.48-.44,2.48-.45,2.34-1.21,3.68-2.53,3.71L77.16,35c.36-.13.78-.85,1.16-2.82.27-1.42.41-2.22.68-3.77h4.82V36H82Z"></path> <path class="cls-3" d="M85.88,28.43H91V30H87.72v1.64h2.77v1.54H87.72V35H91.1v1.54H85.88Z"></path> <path class="cls-3" d="M92.72,28.43h2.8c1.79,0,3.23.64,3.23,2.62s-1.46,2.75-3.19,2.75h-1v2.76H92.72Zm2.74,3.91c1,0,1.49-.45,1.49-1.29s-.55-1.16-1.54-1.16h-.85v2.45Z"></path> <path class="cls-3" d="M101.05,28.43h2.2l2.55,8.13h-1.94l-1.07-4.12c-.22-.81-.44-1.77-.66-2.62h0c-.19.86-.41,1.81-.64,2.62l-1.07,4.12H98.49Zm-.87,4.77h3.91v1.43h-3.91Z"></path> <path class="cls-3" d="M106.69,28.43h1.84V35h2.56V28.43h1.84v8.13h-6.24Zm5.43,8.13h-.34V35h2.14v1.15l-.16,2.74h-1.64Z"></path> <path class="cls-3" d="M115,28.43h1.81V31.3c0,1-.14,2.1-.23,3h0l.8-1.78,2.14-4h2v8.13h-1.82V33.68c0-1,.15-2.05.23-2.95h0l-.8,1.77-2.14,4.06H115Z"></path> <path class="cls-3" d="M125.47,32.18l1.25,1-2,3.41h-2.1Zm1.88,1.46h-1.13c-1.69,0-3.1-.81-3.1-2.68s1.41-2.53,3.14-2.53h2.93v8.13h-1.84Zm0-1.46V29.89h-.94c-1,0-1.49.27-1.49,1.07s.52,1.22,1.49,1.22Z"></path> <path class="cls-3" d="M134.16,30h-2.24V28.43h6.32V30H136v6.59h-1.84Z"></path> <path class="cls-3" d="M140.69,32.38l-2.11-4h2l.7,1.54c.19.37.36.79.59,1.3H142c.18-.51.35-.93.52-1.3l.64-1.54h2l-2.11,4,2.25,4.1h-2.05l-.8-1.65c-.21-.42-.4-.84-.61-1.34h-.05c-.2.5-.38.92-.56,1.34l-.76,1.65h-2Z"></path> <path class="cls-3" d="M145.65,35.52l1-1.15a2.42,2.42,0,0,0,1.72.76c1.18,0,1.91-.77,1.91-2.66s-.72-2.6-1.95-2.6a2.24,2.24,0,0,0-1.55.65l-1-1.18a3.88,3.88,0,0,1,2.62-1.06c2.07,0,3.66,1.38,3.66,4.26s-1.66,4.17-3.69,4.17A3.58,3.58,0,0,1,145.65,35.52Zm1.73-3.91H151v1.54h-3.64Z"></path> <path class="cls-3" d="M153.6,28.43h1.84v3.2h2l3,4.93H158.5l-2.16-3.45h-.9v3.45H153.6Zm2.56,3.51,1.24-2.19a2.27,2.27,0,0,1,2.15-1.47,1.55,1.55,0,0,1,.66.11l-.3,1.66a1,1,0,0,0-.35-.05c-.37,0-.58.17-.91.74l-.9,1.56Z"></path> <path class="cls-3" d="M161.37,28.43h2.78c1.69,0,3,.46,3,2a1.88,1.88,0,0,1-1.07,1.75v0a1.86,1.86,0,0,1,1.47,1.92c0,1.65-1.4,2.39-3.17,2.39h-3Zm2.69,3.26c.9,0,1.29-.38,1.29-1s-.41-.87-1.27-.87h-.87v1.84Zm.17,3.46c1,0,1.52-.36,1.52-1.1s-.51-1-1.52-1h-1v2.11Z"></path> <path class="cls-3" d="M168.53,32.46c0-2.66,1.5-4.18,3.7-4.18s3.69,1.53,3.69,4.18-1.5,4.25-3.69,4.25S168.53,35.12,168.53,32.46Zm5.51,0c0-1.63-.7-2.59-1.81-2.59s-1.81,1-1.81,2.59.7,2.67,1.81,2.67S174,34.09,174,32.46Z"></path> <path class="cls-3" d="M177.45,28.43h1.84v3.13h2.81V28.43h1.84v8.13H182.1V33.17h-2.81v3.39h-1.84Z"></path> <path class="cls-3" d="M186.87,38.91h-1.65l-.15-2.74V35h8v1.15L193,38.91h-1.64V36.56h-4.44Zm3.4-8.94H188.7c-.18,1-.25,1.48-.44,2.48-.45,2.34-1.22,3.68-2.53,3.71L185.44,35c.37-.13.78-.85,1.17-2.82.27-1.42.4-2.22.67-3.77h4.83V36h-1.84Z"></path> <path class="cls-3" d="M193.72,32.46c0-2.66,1.5-4.18,3.69-4.18s3.7,1.53,3.7,4.18-1.5,4.25-3.7,4.25S193.72,35.12,193.72,32.46Zm5.5,0c0-1.63-.7-2.59-1.81-2.59s-1.81,1-1.81,2.59.7,2.67,1.81,2.67S199.22,34.09,199.22,32.46Z"></path> </g> <g> <path class="cls-3" d="M61.28,48.46l.85-6h.1l2.43,4.9,2.4-4.9h.1l.86,6h-.58l-.6-4.27-2.11,4.27h-.15l-2.14-4.3-.59,4.3Z"></path> <path class="cls-3" d="M74.34,42.33a3.13,3.13,0,0,1,2.28.91,3.14,3.14,0,0,1-2.23,5.37,3,3,0,0,1-2.24-.91,3,3,0,0,1-.92-2.2,3.19,3.19,0,0,1,.42-1.6,3.07,3.07,0,0,1,1.14-1.15A3,3,0,0,1,74.34,42.33Zm0,.59a2.51,2.51,0,0,0-2.18,1.27,2.54,2.54,0,0,0-.34,1.31A2.51,2.51,0,0,0,74.37,48a2.54,2.54,0,0,0,1.29-.34,2.39,2.39,0,0,0,.92-.92,2.71,2.71,0,0,0,0-2.59,2.49,2.49,0,0,0-.93-.92A2.53,2.53,0,0,0,74.37,42.92Z"></path> <path class="cls-3" d="M86.6,43.59l-.47.37a2.48,2.48,0,0,0-.94-.77,2.73,2.73,0,0,0-2.52.08,2.47,2.47,0,0,0-1,.92,2.59,2.59,0,0,0-.33,1.3,2.46,2.46,0,0,0,.75,1.83,2.76,2.76,0,0,0,4-.26l.47.36a3.08,3.08,0,0,1-1.11.88,3.5,3.5,0,0,1-1.5.31,3.07,3.07,0,0,1-3.23-3.17,2.94,2.94,0,0,1,.92-2.21,3.15,3.15,0,0,1,2.3-.9,3.43,3.43,0,0,1,1.52.34A3.07,3.07,0,0,1,86.6,43.59Z"></path> <path class="cls-3" d="M90.1,42.49h.61v2.24l2.39-2.24h.8L91,45.17l3.1,3.29h-.8l-2.62-2.78v2.78H90.1Z"></path> <path class="cls-3" d="M100.17,42.33a3.12,3.12,0,0,1,2.27.91,3.14,3.14,0,0,1-2.22,5.37A3.05,3.05,0,0,1,98,47.7a3,3,0,0,1-.91-2.2,3.19,3.19,0,0,1,.42-1.6,3,3,0,0,1,1.13-1.15A3,3,0,0,1,100.17,42.33Zm0,.59A2.54,2.54,0,0,0,98,44.19a2.63,2.63,0,0,0-.33,1.31A2.49,2.49,0,0,0,100.19,48a2.49,2.49,0,0,0,1.29-.34,2.35,2.35,0,0,0,.93-.92,2.71,2.71,0,0,0,0-2.59,2.59,2.59,0,0,0-2.22-1.26Z"></path> <path class="cls-3" d="M106.87,42.49h1.18a2.9,2.9,0,0,1,1.1.16,1.44,1.44,0,0,1,.6.52A1.42,1.42,0,0,1,110,44a1.36,1.36,0,0,1-.19.72,1.39,1.39,0,0,1-.57.53,2,2,0,0,1,.71.38,1.54,1.54,0,0,1,.4.51,1.64,1.64,0,0,1-.39,1.87,1.93,1.93,0,0,1-1.41.5h-1.65Zm.59.58V45h.34a2.65,2.65,0,0,0,.92-.11,1,1,0,0,0,.46-.37.9.9,0,0,0,.17-.55.79.79,0,0,0-.28-.65,1.52,1.52,0,0,0-.92-.23Zm0,2.51v2.3h.74a2.74,2.74,0,0,0,1-.13,1.08,1.08,0,0,0,.49-.4,1,1,0,0,0,.19-.59,1,1,0,0,0-.26-.7,1.37,1.37,0,0,0-.72-.4,5,5,0,0,0-1.06-.08Z"></path> <path class="cls-3" d="M119.51,43.59,119,44a2.56,2.56,0,0,0-.94-.77,2.75,2.75,0,0,0-2.53.08,2.45,2.45,0,0,0-.94.92,2.6,2.6,0,0,0-.34,1.3,2.46,2.46,0,0,0,.75,1.83,2.63,2.63,0,0,0,1.9.73,2.67,2.67,0,0,0,2.1-1l.47.36a3,3,0,0,1-1.12.88,3.43,3.43,0,0,1-1.49.31,3.14,3.14,0,0,1-2.48-1,3.19,3.19,0,0,1-.75-2.13,3,3,0,0,1,.91-2.21,3.19,3.19,0,0,1,2.31-.9,3.39,3.39,0,0,1,1.51.34A3,3,0,0,1,119.51,43.59Z"></path> <path class="cls-3" d="M123,42.49h.61v2.24L126,42.49h.8l-2.87,2.68L127,48.46h-.79l-2.62-2.78v2.78H123Z"></path> <path class="cls-3" d="M133.08,42.33a3.12,3.12,0,0,1,2.27.91,3.14,3.14,0,0,1-2.23,5.37,3,3,0,0,1-2.24-.91,3,3,0,0,1-.92-2.2,3.19,3.19,0,0,1,.42-1.6,3.11,3.11,0,0,1,2.7-1.57Zm0,.59a2.51,2.51,0,0,0-2.18,1.27,2.54,2.54,0,0,0-.34,1.31A2.51,2.51,0,0,0,133.1,48a2.49,2.49,0,0,0,1.29-.34,2.39,2.39,0,0,0,.92-.92,2.64,2.64,0,0,0,0-2.59,2.49,2.49,0,0,0-.93-.92A2.53,2.53,0,0,0,133.1,42.92Z"></path> <path class="cls-3" d="M144.47,48.46h-.63V43.88l-3.94,4.58h-.13v-6h.6v4.66l4-4.66h.14Zm-3.79-7.41h.54a.77.77,0,0,0,.37.32,1.28,1.28,0,0,0,.55.11,1.12,1.12,0,0,0,.52-.1,1,1,0,0,0,.38-.33h.52a1,1,0,0,1-.46.62,1.72,1.72,0,0,1-1,.24,1.79,1.79,0,0,1-1-.24A1.07,1.07,0,0,1,140.68,41.05Z"></path> <path class="cls-3" d="M151.07,42.33a3.11,3.11,0,0,1,2.27.91,3.16,3.16,0,0,1,0,4.46A3.15,3.15,0,0,1,148,45.5a3.19,3.19,0,0,1,.42-1.6,3,3,0,0,1,1.13-1.15A3,3,0,0,1,151.07,42.33Zm0,.59a2.54,2.54,0,0,0-2.19,1.27,2.63,2.63,0,0,0-.33,1.31A2.51,2.51,0,0,0,151.1,48a2.48,2.48,0,0,0,1.28-.34,2.35,2.35,0,0,0,.93-.92,2.71,2.71,0,0,0,0-2.59,2.49,2.49,0,0,0-.93-.92A2.56,2.56,0,0,0,151.1,42.92Z"></path> <path class="cls-3" d="M157.76,48.46v-6h3v.58h-2.4V45h.28a4.87,4.87,0,0,1,1.62.2,1.71,1.71,0,0,1,.8.62,1.69,1.69,0,0,1,.29,1,1.65,1.65,0,0,1-.52,1.2,1.91,1.91,0,0,1-1.42.51Zm.59-2.88v2.3h.73a2.74,2.74,0,0,0,1-.13,1.13,1.13,0,0,0,.49-.4,1.07,1.07,0,0,0-.08-1.29,1.14,1.14,0,0,0-.64-.38,5.12,5.12,0,0,0-1.13-.1Z"></path> <path class="cls-3" d="M169.67,48.46H169l-2-4.62-2,4.62h-.64l2.6-6h.13Z"></path> <path class="cls-3" d="M175.42,42.49l2.79,6h-.65l-.94-2h-2.57l-.94,2h-.66l2.82-6Zm-.08,1.26-1,2.17h2Z"></path> <path class="cls-3" d="M187,43.59l-.47.37a2.48,2.48,0,0,0-.94-.77,2.73,2.73,0,0,0-2.52.08,2.47,2.47,0,0,0-.95.92,2.59,2.59,0,0,0-.33,1.3,2.46,2.46,0,0,0,.75,1.83,2.76,2.76,0,0,0,4-.26l.47.36a3.08,3.08,0,0,1-1.11.88,3.5,3.5,0,0,1-1.5.31,3.07,3.07,0,0,1-3.23-3.17,3,3,0,0,1,.92-2.21,3.15,3.15,0,0,1,2.3-.9,3.43,3.43,0,0,1,1.52.34A3,3,0,0,1,187,43.59Z"></path> <path class="cls-3" d="M189.91,43.07v-.58h3.28v.58h-1.34v5.39h-.61V43.07Z"></path> <path class="cls-3" d="M201.05,48.46h-.62V43.88l-3.94,4.58h-.14v-6h.6v4.66l4-4.66h.13Z"></path> </g> </svg> 